<?xml version="1.0" encoding="UTF-8"?>
<svg id="Layer_1" xmlns="http://www.w3.org/2000/svg" version="1.1" xmlns:cc="http://creativecommons.org/ns#" xmlns:dc="http://purl.org/dc/elements/1.1/" xmlns:inkscape="http://www.inkscape.org/namespaces/inkscape" xmlns:rdf="http://www.w3.org/1999/02/22-rdf-syntax-ns#" xmlns:sodipodi="http://sodipodi.sourceforge.net/DTD/sodipodi-0.dtd" xmlns:svg="http://www.w3.org/2000/svg" viewBox="0 0 100 100">
  <!-- Generator: Adobe Illustrator 29.0.0, SVG Export Plug-In . SVG Version: 2.1.0 Build 186)  -->
  <path d="M48.2,5.6L8.2,35.6c-.7.6-1.2,1.5-1.2,2.4v54c0,1.6,1.4,3,3,3h27c1.6,0,3-1.4,3-3v-23c0-5.6,4.4-10,10-10s10,4.4,10,10v23c0,1.6,1.4,3,3,3h27c1.6,0,3-1.4,3-3v-54c0-.9-.4-1.8-1.2-2.4L51.8,5.6c-1.3-.8-2.4-.7-3.6,0h0ZM50,11.7l37,27.8v49.5h-21v-20c0-8.8-7.2-16-16-16s-16,7.2-16,16v20H13v-49.5L50,11.7Z"/>
</svg>