<?xml version="1.0" encoding="UTF-8"?>
<svg id="Layer_1" xmlns="http://www.w3.org/2000/svg" version="1.1" xmlns:cc="http://creativecommons.org/ns#" xmlns:dc="http://purl.org/dc/elements/1.1/" xmlns:inkscape="http://www.inkscape.org/namespaces/inkscape" xmlns:rdf="http://www.w3.org/1999/02/22-rdf-syntax-ns#" xmlns:sodipodi="http://sodipodi.sourceforge.net/DTD/sodipodi-0.dtd" xmlns:svg="http://www.w3.org/2000/svg" viewBox="0 0 100 100">
  <!-- Generator: Adobe Illustrator 29.0.0, SVG Export Plug-In . SVG Version: 2.1.0 Build 186)  -->
  <path d="M65.67,96.385c-5.866,0-10.639-4.577-10.64-10.204v-10.39c0-.346-.355-.894-1.311-.894h-7.431c-.954,0-1.31.548-1.31.894v10.39c0,5.627-4.773,10.204-10.64,10.204h-9.518c-5.866,0-10.639-4.577-10.64-10.204l-.004-27.673c-.03-2.557,2.033-4.674,4.598-4.712h.002c1.324,0,2.5.492,3.383,1.385.883.894,1.361,2.077,1.346,3.334l.004,27.667c0,.346.356.895,1.31.895h9.518c.954,0,1.31-.549,1.31-.895v-10.39c0-5.626,4.773-10.203,10.64-10.204h7.431c5.866,0,10.64,4.578,10.641,10.204v10.39c0,.346.355.895,1.31.895h9.518c.955,0,1.311-.549,1.311-.895v-27.673c-.031-2.557,2.031-4.674,4.597-4.712h.002c1.324,0,2.501.492,3.383,1.385.883.894,1.361,2.077,1.346,3.334v27.667c0,5.627-4.773,10.204-10.64,10.204h-9.518ZM5.79,53.712c-1.271,0-2.458-.503-3.344-1.414-1.786-1.84-1.747-4.794.086-6.585L40.844,7.397c2.44-2.439,5.707-3.782,9.199-3.782,3.496,0,6.763,1.345,9.203,3.786l38.226,38.23c1.83,1.787,1.868,4.741.082,6.581-.885.911-2.074,1.413-3.344,1.413h0c-1.266,0-2.451-.499-3.335-1.405L52.648,13.995c-.713-.713-1.637-1.105-2.603-1.105s-1.891.392-2.603,1.105L9.122,52.31c-.881.903-2.066,1.402-3.332,1.402Z"/>
</svg>