<?xml version="1.0" encoding="UTF-8"?>
<svg id="Layer_1" xmlns="http://www.w3.org/2000/svg" version="1.1" viewBox="0 0 53.207 100">
  <!-- Generator: Adobe Illustrator 29.0.0, SVG Export Plug-In . SVG Version: 2.1.0 Build 186)  -->
  <path d="M43.727,5.898c1.838,0,3.579.729,4.902,2.052,1.31,1.31,2.062,3.1,2.062,4.911,0,1.925-.77,3.728-2.114,4.964L16.249,50.152l-.05.09,32.43,32.443c1.338,1.337,2.105,3.127,2.105,4.911,0,1.981-.739,3.744-2.082,4.973-1.276,1.243-2.979,1.927-4.806,1.927-1.838,0-3.576-.685-4.893-1.929L6.429,60.13c-2.603-2.603-4.094-6.211-4.094-9.902,0-3.851,1.468-7.381,4.134-9.942L38.806,7.95c1.323-1.323,3.07-2.052,4.92-2.052h0Z"/>
</svg>