<?xml version="1.0" encoding="UTF-8"?>
<svg id="Layer_1" xmlns="http://www.w3.org/2000/svg" version="1.1" viewBox="0 0 100 100">
  <!-- Generator: Adobe Illustrator 29.0.0, SVG Export Plug-In . SVG Version: 2.1.0 Build 186)  -->
  <path d="M91.382,36.013h-2.851c-.395-1.154-.856-2.284-1.381-3.385l2.005-2.005c2.964-2.95,2.976-7.745.026-10.709-.009-.009-.017-.017-.026-.026l-8.909-8.909c-2.99-2.902-7.745-2.902-10.735,0l-2.005,2.005c-1.101-.525-2.231-.986-3.385-1.381v-2.985c0-4.207-3.41-7.617-7.617-7.618-.03,0-.06,0-.09,0h-12.829c-4.189.025-7.573,3.428-7.573,7.617v2.851c-1.154.395-2.284.856-3.385,1.381l-2.005-2.005c-2.95-2.964-7.745-2.976-10.709-.026-.009.009-.017.017-.026.026l-8.909,8.909c-2.964,2.95-2.976,7.745-.026,10.709.009.009.017.017.026.026l2.005,2.005c-.525,1.101-.986,2.231-1.381,3.385h-2.985c-4.207,0-7.617,3.41-7.618,7.617,0,.03,0,.06,0,.09v12.829c.025,4.189,3.428,7.573,7.617,7.573h2.851c.395,1.154.856,2.284,1.381,3.385l-2.005,2.005c-2.964,2.95-2.976,7.745-.026,10.709.009.009.017.017.026.026l8.909,8.909c2.95,2.964,7.745,2.976,10.709.026.009-.009.017-.017.026-.026l2.005-2.005c1.101.525,2.231.986,3.385,1.381v2.851c-.074,4.206,3.276,7.676,7.482,7.75.075.001.15.002.224,0h12.829c4.189-.025,7.573-3.428,7.573-7.617v-2.851c1.154-.395,2.284-.856,3.385-1.381l2.005,2.005c2.99,2.902,7.745,2.902,10.735,0l8.909-8.909c2.964-2.95,2.976-7.745.026-10.709-.009-.009-.017-.017-.026-.026l-2.005-2.005c.525-1.101.986-2.231,1.381-3.385h2.851c4.206.074,7.676-3.276,7.75-7.482.001-.075.002-.15,0-.224v-12.829c-.024-4.189-3.428-7.573-7.617-7.573ZM90.091,55.078h-2.45c-3.295.02-6.213,2.132-7.261,5.256-.446,1.32-.967,2.614-1.559,3.875-1.506,2.957-.95,6.546,1.381,8.909l1.737,1.737-7.172,7.172-1.737-1.737c-2.369-2.318-5.95-2.873-8.909-1.381-1.243.6-2.522,1.121-3.831,1.559-3.124,1.048-5.237,3.966-5.256,7.261v2.361h-10.112v-2.45c-.02-3.295-2.132-6.213-5.256-7.261-1.308-.439-2.588-.959-3.831-1.559-2.957-1.506-6.546-.95-8.909,1.381l-1.737,1.737-7.127-7.172,1.737-1.737c2.331-2.363,2.887-5.952,1.381-8.909-.592-1.261-1.113-2.555-1.559-3.875-1.048-3.124-3.966-5.237-7.261-5.256h-2.45v-10.067h2.45c3.295-.02,6.213-2.132,7.261-5.256.446-1.32.967-2.614,1.559-3.875,1.506-2.957.95-6.546-1.381-8.909l-1.737-1.737,7.172-7.083,1.737,1.737c2.363,2.331,5.952,2.887,8.909,1.381,1.243-.6,2.522-1.121,3.831-1.559,3.124-1.048,5.237-3.966,5.256-7.261v-2.45h10.156v2.45c.02,3.295,2.132,6.213,5.256,7.261,1.308.439,2.588.959,3.831,1.559,2.959,1.492,6.54.937,8.909-1.381l1.737-1.737,7.172,7.172-1.737,1.737c-2.331,2.363-2.887,5.952-1.381,8.909.592,1.261,1.113,2.555,1.559,3.875,1.048,3.124,3.966,5.237,7.261,5.256h2.361v10.067Z"/>
  <path d="M50,25.5c-13.531,0-24.5,10.969-24.5,24.5s10.969,24.5,24.5,24.5,24.5-10.969,24.5-24.5c-.025-13.521-10.979-24.475-24.5-24.5ZM50,65.591c-8.611,0-15.591-6.98-15.591-15.591s6.98-15.591,15.591-15.591,15.591,6.98,15.591,15.591-6.98,15.591-15.591,15.591Z"/>
</svg>