<?xml version="1.0" encoding="UTF-8"?>
<svg id="Layer_1" xmlns="http://www.w3.org/2000/svg" viewBox="0 0 201 401">
  <defs>
    <style>
      .cls-1 {
        fill: none;
        stroke: #000;
        stroke-linecap: round;
        stroke-miterlimit: 10;
      }
    </style>
  </defs>
  <path id="oSeArc" class="cls-1" d="M200.5,300.5c-.071,7.076-.243,12.711-1.846,22.379-1.065,6.422-2.652,12.363-5.006,18.451s-5.626,11.79-9.035,17.066c-3.409,5.276-7.325,10.126-11.708,14.509s-9.233,8.299-14.509,11.708-10.978,6.613-17.066,8.967c-6.088,2.354-12.13,3.879-18.333,5.074-8.219,1.583-15.029,1.846-22.497,1.846"/>
  <line id="oSeH" class="cls-1" x1="200.5" y1="400.5" x2="100.5" y2="400.5"/>
  <line id="oSeV" class="cls-1" x1="200.5" y1="300.5" x2="200.5" y2="400.5"/>
  <line id="oSV" class="cls-1" x1="100.5" y1="300.5" x2="100.5" y2="400.5"/>
  <path id="oSwArc" class="cls-1" d="M100.5,400.5c-7.076-.071-12.711-.243-22.379-1.846-6.422-1.065-12.363-2.652-18.451-5.006s-11.79-5.626-17.066-9.035-10.126-7.325-14.509-11.708-8.299-9.233-11.708-14.509-6.613-10.978-8.967-17.066c-2.354-6.088-3.879-12.13-5.074-18.333-1.583-8.219-1.846-15.029-1.846-22.497"/>
  <line id="oSwH" class="cls-1" x1="100.5" y1="400.5" x2=".5" y2="400.5"/>
  <line id="oSwV" class="cls-1" x1=".5" y1="400.5" x2=".5" y2="300.5"/>
  <path id="iSeArc" class="cls-1" d="M100.5,200.5c7.076.071,12.711.243,22.379,1.846,6.422,1.065,12.363,2.652,18.451,5.006,6.088,2.354,11.79,5.626,17.066,9.035s10.126,7.325,14.509,11.708,8.299,9.233,11.708,14.509,6.613,10.978,8.967,17.066c2.354,6.088,3.879,12.13,5.074,18.333,1.583,8.219,1.846,15.029,1.846,22.497"/>
  <line id="iSeV" class="cls-1" x1="200.5" y1="200.5" x2="200.5" y2="300.5"/>
  <line id="iSV" class="cls-1" x1="100.5" y1="200.5" x2="100.5" y2="300.5"/>
  <path id="iSwArc" class="cls-1" d="M.5,300.5c.071-7.076.243-12.711,1.846-22.379,1.065-6.422,2.652-12.363,5.006-18.451s5.626-11.79,9.035-17.066,7.325-10.126,11.708-14.509,9.233-8.299,14.509-11.708c5.276-3.409,10.978-6.613,17.066-8.967s12.13-3.879,18.333-5.074c8.219-1.583,15.029-1.846,22.497-1.846"/>
  <line id="iSwV" class="cls-1" x1=".5" y1="300.5" x2=".5" y2="200.5"/>
  <line id="SeDiag" class="cls-1" x1="100.5" y1="200.5" x2="200.5" y2="400.5"/>
  <line id="SwDiag" class="cls-1" x1=".5" y1="400.5" x2="100.5" y2="200.5"/>
  <line id="iEH" class="cls-1" x1="100.5" y1="200.5" x2="200.5" y2="200.5"/>
  <line id="iWH" class="cls-1" x1=".5" y1="200.5" x2="100.5" y2="200.5"/>
  <line id="NeDiag" class="cls-1" x1="100.5" y1="200.5" x2="200.5" y2=".5"/>
  <line id="NwDiag" class="cls-1" x1=".5" y1=".5" x2="100.5" y2="200.5"/>
  <path id="iNeArc" class="cls-1" d="M200.5,100.5c-.071,7.076-.243,12.711-1.846,22.379-1.065,6.422-2.652,12.363-5.006,18.451-2.354,6.088-5.626,11.79-9.035,17.066s-7.325,10.126-11.708,14.509-9.233,8.299-14.509,11.708-10.978,6.613-17.066,8.967-12.13,3.879-18.333,5.074c-8.219,1.583-15.029,1.846-22.497,1.846"/>
  <line id="iNeV" class="cls-1" x1="200.5" y1="100.5" x2="200.5" y2="200.5"/>
  <line id="iNV" class="cls-1" x1="100.5" y1="100.5" x2="100.5" y2="200.5"/>
  <path id="iNwArc" class="cls-1" d="M100.5,200.5c-7.076-.071-12.711-.243-22.379-1.846-6.422-1.065-12.363-2.652-18.451-5.006s-11.79-5.626-17.066-9.035-10.126-7.325-14.509-11.708-8.299-9.233-11.708-14.509-6.613-10.978-8.967-17.066c-2.354-6.088-3.879-12.13-5.074-18.333-1.583-8.219-1.846-15.029-1.846-22.497"/>
  <line id="iNwV" class="cls-1" x1=".5" y1="200.5" x2=".5" y2="100.5"/>
  <path id="oNeArc" class="cls-1" d="M100.5.5c7.076.071,12.711.243,22.379,1.846,6.422,1.065,12.363,2.652,18.451,5.006s11.79,5.626,17.066,9.035,10.126,7.325,14.509,11.708,8.299,9.233,11.708,14.509,6.613,10.978,8.967,17.066c2.354,6.088,3.879,12.13,5.074,18.333,1.583,8.219,1.846,15.029,1.846,22.497"/>
  <line id="oNeH" class="cls-1" x1="100.5" y1=".5" x2="200.5" y2=".5"/>
  <line id="oNeV" class="cls-1" x1="200.5" y1=".5" x2="200.5" y2="100.5"/>
  <line id="oNV" class="cls-1" x1="100.5" y1=".5" x2="100.5" y2="100.5"/>
  <path id="oNwArc" class="cls-1" d="M.5,100.5c.071-7.076.243-12.711,1.846-22.379,1.065-6.422,2.652-12.363,5.006-18.451s5.626-11.79,9.035-17.066,7.325-10.126,11.708-14.509,9.233-8.299,14.509-11.708,10.978-6.613,17.066-8.967,12.13-3.879,18.333-5.074c8.219-1.583,15.029-1.846,22.497-1.846"/>
  <line id="oNwH" class="cls-1" x1=".5" y1=".5" x2="100.5" y2=".5"/>
  <line id="oiNwV" class="cls-1" x1=".5" y1="100.5" x2=".5" y2=".5"/>
</svg>